<?xml version="1.0" standalone="no"?>
<!DOCTYPE svg PUBLIC "-//W3C//DTD SVG 20010904//EN"
 "http://www.w3.org/TR/2001/REC-SVG-20010904/DTD/svg10.dtd">
<svg version="1.0" xmlns="http://www.w3.org/2000/svg"
 width="240.000000pt" height="240.000000pt" viewBox="0 0 240.000000 240.000000"
 preserveAspectRatio="xMidYMid meet">
<metadata>
Created by potrace 1.16, written by Peter Selinger 2001-2019
</metadata>
<g transform="translate(0.000000,240.000000) scale(0.100000,-0.100000)"
fill="#000000" stroke="none">
<path d="M951 2379 c-469 -99 -835 -467 -930 -936 -29 -140 -29 -346 0 -486
96 -472 464 -840 936 -936 140 -29 346 -29 486 0 472 96 840 464 936 936 29
140 29 346 0 486 -96 472 -464 840 -936 936 -137 28 -358 28 -492 0z m471
-308 c323 -83 574 -339 655 -668 26 -106 23 -314 -5 -423 -85 -318 -334 -568
-652 -651 -121 -32 -320 -32 -439 0 -324 86 -566 328 -652 652 -32 119 -32
318 0 439 92 349 383 614 738 670 86 13 266 4 355 -19z"/>
<path d="M1151 1624 c-19 -25 -21 -40 -21 -190 l0 -164 -164 0 c-150 0 -165
-2 -190 -21 -35 -28 -35 -70 0 -98 25 -19 40 -21 190 -21 l164 0 0 -164 c0
-150 2 -165 21 -190 26 -33 68 -34 97 -3 21 22 22 33 22 190 l0 167 164 0
c150 0 165 2 190 21 35 28 35 70 0 98 -25 19 -40 21 -190 21 l-164 0 0 168 c0
163 -1 169 -23 190 -32 30 -71 28 -96 -4z"/>
</g>
</svg>
