<?xml version="1.0" standalone="no"?>
<!DOCTYPE svg PUBLIC "-//W3C//DTD SVG 20010904//EN"
 "http://www.w3.org/TR/2001/REC-SVG-20010904/DTD/svg10.dtd">
<svg version="1.0" xmlns="http://www.w3.org/2000/svg"
 width="32.000000pt" height="32.000000pt" viewBox="0 0 32.000000 32.000000"
 preserveAspectRatio="xMidYMid meet">

<g transform="translate(0.000000,32.000000) scale(0.100000,-0.100000)"
fill="#000000" stroke="none">
<path d="M120 280 c0 -5 -15 -10 -34 -10 -19 0 -38 -4 -41 -10 -4 -6 37 -10
115 -10 78 0 119 4 115 10 -3 6 -22 10 -41 10 -19 0 -34 5 -34 10 0 6 -18 10
-40 10 -22 0 -40 -4 -40 -10z"/>
<path d="M52 133 l3 -98 105 0 105 0 3 98 3 97 -111 0 -111 0 3 -97z m88 2 c0
-37 -4 -65 -10 -65 -6 0 -10 28 -10 65 0 37 4 65 10 65 6 0 10 -28 10 -65z
m60 0 c0 -37 -4 -65 -10 -65 -6 0 -10 28 -10 65 0 37 4 65 10 65 6 0 10 -28
10 -65z"/>
</g>
</svg>
