<?xml version="1.0" standalone="no"?>
<!DOCTYPE svg PUBLIC "-//W3C//DTD SVG 20010904//EN"
 "http://www.w3.org/TR/2001/REC-SVG-20010904/DTD/svg10.dtd">
<svg version="1.0" xmlns="http://www.w3.org/2000/svg"
 width="32.000000pt" height="32.000000pt" viewBox="0 0 32.000000 32.000000"
 preserveAspectRatio="xMidYMid meet">

<g transform="translate(0.000000,32.000000) scale(0.100000,-0.100000)"
fill="#000000" stroke="none">
<path d="M192 197 l-62 -63 30 -29 30 -29 65 64 65 64 -27 28 c-15 15 -29 28
-33 28 -3 0 -34 -28 -68 -63z m38 -22 c-24 -25 -49 -45 -54 -45 -6 0 10 20 34
45 24 25 49 45 54 45 6 0 -10 -20 -34 -45z"/>
<path d="M106 88 c-10 -40 -7 -45 24 -40 36 5 37 12 6 41 l-23 22 -7 -23z"/>
<path d="M0 56 c0 -12 10 -16 36 -16 45 0 42 24 -4 28 -24 2 -32 -1 -32 -12z"/>
</g>
</svg>
