<?xml version="1.0" standalone="no"?>
<!DOCTYPE svg PUBLIC "-//W3C//DTD SVG 20010904//EN"
 "http://www.w3.org/TR/2001/REC-SVG-20010904/DTD/svg10.dtd">
<svg version="1.0" xmlns="http://www.w3.org/2000/svg"
 width="32.000000pt" height="32.000000pt" viewBox="0 0 32.000000 32.000000"
 preserveAspectRatio="xMidYMid meet">
<metadata>
Created by potrace 1.16, written by Peter Selinger 2001-2019
</metadata>
<g transform="translate(0.000000,32.000000) scale(0.100000,-0.100000)"
fill="#000000" stroke="none">
<path d="M241 256 c-10 -11 -19 -12 -42 -4 -40 14 -92 2 -129 -28 -50 -42 -56
-62 -30 -96 16 -22 19 -33 11 -41 -6 -6 -11 -17 -11 -24 0 -23 25 -14 60 22
22 23 36 31 41 24 11 -19 59 -1 71 26 16 36 2 42 -30 14 -17 -15 -15 -10 7 14
19 20 37 37 41 37 3 0 11 -10 19 -21 12 -20 10 -25 -18 -52 -24 -24 -40 -31
-72 -32 -49 -1 -64 -21 -24 -31 41 -10 100 12 134 51 37 43 38 49 7 80 -20 20
-22 26 -10 36 18 15 18 39 0 39 -7 0 -19 -6 -25 -14z"/>
</g>
</svg>
