<?xml version="1.0" standalone="no"?>
<!DOCTYPE svg PUBLIC "-//W3C//DTD SVG 20010904//EN"
 "http://www.w3.org/TR/2001/REC-SVG-20010904/DTD/svg10.dtd">
<svg version="1.0" xmlns="http://www.w3.org/2000/svg"
 width="32.000000pt" height="32.000000pt" viewBox="0 0 32.000000 32.000000"
 preserveAspectRatio="xMidYMid meet">

<g transform="translate(0.000000,32.000000) scale(0.100000,-0.100000)"
fill="#000000" stroke="none">
<path d="M26 291 l-27 -28 55 -60 55 -60 -49 -58 c-28 -33 -50 -63 -50 -67 0
-19 29 -5 85 41 l60 48 60 -47 c75 -58 82 -63 89 -51 4 5 -18 38 -48 73 l-55
63 57 58 c59 60 62 74 19 101 -14 9 -26 1 -70 -48 -51 -58 -54 -59 -68 -40 -8
12 -30 39 -50 62 l-36 42 -27 -29z"/>
</g>
</svg>
