<?xml version="1.0" standalone="no"?>
<!DOCTYPE svg PUBLIC "-//W3C//DTD SVG 20010904//EN"
 "http://www.w3.org/TR/2001/REC-SVG-20010904/DTD/svg10.dtd">
<svg version="1.0" xmlns="http://www.w3.org/2000/svg"
 width="32.000000pt" height="32.000000pt" viewBox="0 0 32.000000 32.000000"
 preserveAspectRatio="xMidYMid meet">

<g transform="translate(0.000000,32.000000) scale(0.100000,-0.100000)"
fill="#000000" stroke="none">
<path d="M89 273 c-80 -49 -79 -179 1 -227 36 -21 104 -21 140 1 34 20 64 71
58 98 -4 16 -9 10 -23 -23 -48 -116 -215 -87 -215 38 0 89 88 137 170 95 32
-17 40 -35 15 -35 -8 0 -15 -4 -15 -10 0 -5 16 -10 35 -10 33 0 35 2 35 35 0
19 -4 35 -10 35 -5 0 -10 -8 -10 -17 0 -11 -3 -14 -8 -7 -30 44 -123 58 -173
27z"/>
<path d="M150 196 c0 -40 3 -47 30 -61 33 -17 40 -18 40 -7 0 5 -11 14 -25 20
-20 9 -25 19 -25 46 0 19 -4 38 -10 41 -6 4 -10 -11 -10 -39z"/>
</g>
</svg>
