<?xml version="1.0" standalone="no"?>
<!DOCTYPE svg PUBLIC "-//W3C//DTD SVG 20010904//EN"
 "http://www.w3.org/TR/2001/REC-SVG-20010904/DTD/svg10.dtd">
<svg version="1.0" xmlns="http://www.w3.org/2000/svg"
 width="32.000000pt" height="32.000000pt" viewBox="0 0 32.000000 32.000000"
 preserveAspectRatio="xMidYMid meet">

<g transform="translate(0.000000,32.000000) scale(0.100000,-0.100000)"
fill="#000000" stroke="none">
<path d="M10 160 l0 -160 150 0 150 0 0 132 c0 130 0 132 -27 160 -26 28 -28
28 -150 28 l-123 0 0 -160z m230 85 l0 -45 -80 0 -80 0 0 45 0 45 80 0 80 0 0
-45z m30 -155 l0 -60 -110 0 -110 0 0 60 0 60 110 0 110 0 0 -60z"/>
<path d="M190 244 c0 -28 3 -35 18 -32 11 2 18 14 20 36 3 27 0 32 -17 32 -17
0 -21 -6 -21 -36z"/>
</g>
</svg>
