<?xml version="1.0" standalone="no"?>
<!DOCTYPE svg PUBLIC "-//W3C//DTD SVG 20010904//EN"
 "http://www.w3.org/TR/2001/REC-SVG-20010904/DTD/svg10.dtd">
<svg version="1.0" xmlns="http://www.w3.org/2000/svg"
 width="24.000000pt" height="24.000000pt" viewBox="0 0 24.000000 24.000000"
 preserveAspectRatio="xMidYMid meet">

<g transform="translate(0.000000,24.000000) scale(0.100000,-0.100000)"
fill="#000000" stroke="none">
<path d="M51 226 c-53 -30 -66 -97 -26 -144 27 -32 67 -45 101 -32 17 7 27 2
50 -21 15 -16 33 -29 40 -29 27 0 25 23 -5 54 -27 28 -30 37 -22 57 14 37 2
76 -31 104 -33 28 -70 31 -107 11z m95 -42 c40 -39 20 -95 -38 -109 -21 -5
-33 -1 -52 19 -32 31 -33 62 -4 93 28 30 63 29 94 -3z"/>
<path d="M73 182 c-6 -4 6 -8 29 -8 26 -1 35 2 27 7 -17 11 -40 11 -56 1z"/>
</g>
</svg>
